<svg width="40" height="33" fill="none" xmlns="http://www.w3.org/2000/svg"><path d="M18 33h16v-2.586h-7.277A15.924 15.924 0 0 1 18 33ZM18 27.182a3.236 3.236 0 0 1-3.232-3.232A3.236 3.236 0 0 1 18 20.716v-7.434a3.236 3.236 0 0 1-3.232-3.232A3.236 3.236 0 0 1 18 6.817V1C9.163 1 2 8.163 2 17s7.163 16 16 16v-5.818Zm-6.95-6.95A3.236 3.236 0 0 1 7.818 17a3.236 3.236 0 0 1 3.232-3.232A3.236 3.236 0 0 1 14.284 17a3.236 3.236 0 0 1-3.232 3.232Z" fill="#E30B13"/><path d="M34 17c0-8.837-7.163-16-16-16v5.818a3.236 3.236 0 0 1 3.232 3.232A3.236 3.236 0 0 1 18 13.284v7.434a3.236 3.236 0 0 1 3.232 3.233A3.236 3.236 0 0 1 18 27.181V33c3.218 0 6.214-.95 8.723-2.586C31.103 27.56 34 22.618 34 17Zm-9.05-3.232A3.236 3.236 0 0 1 28.181 17a3.236 3.236 0 0 1-3.232 3.232A3.236 3.236 0 0 1 21.716 17a3.236 3.236 0 0 1 3.233-3.232Z" fill="#CE080F"/></svg>